<svg height="512pt" viewBox="-97 0 512 512" width="512pt" xmlns="http://www.w3.org/2000/svg"><path d="m317.792969 17.65625v441.378906c0 29.25-23.714844 52.964844-52.964844 52.964844h-247.171875c-9.738281-.027344-17.6289062-7.917969-17.65625-17.65625v-476.6875c.0273438-9.738281 7.917969-17.6289062 17.65625-17.65625h282.480469c9.738281.0273438 17.628906 7.917969 17.65625 17.65625zm0 0" fill="#ebeced"/><path d="m158.898438 44.136719h-114.761719c-4.875 0-8.828125 3.953125-8.828125 8.828125v176.550781c0 4.878906 3.953125 8.828125 8.828125 8.828125h185.378906c29.253906 0 52.96875-23.710938 52.96875-52.964844v-132.414062c0-4.875-3.953125-8.828125-8.828125-8.828125zm0 0" fill="#586270"/><path d="m132.414062 353.101562c0 29.253907-23.714843 52.96875-52.964843 52.96875-29.253907 0-52.964844-23.714843-52.964844-52.96875 0-29.25 23.710937-52.964843 52.964844-52.964843 29.25 0 52.964843 23.714843 52.964843 52.964843zm0 0" fill="#c9ced1"/><path d="m88.277344 79.449219h141.238281c4.878906 0 8.828125 3.953125 8.828125 8.828125v105.929687c0 4.875-3.949219 8.828125-8.828125 8.828125h-141.238281c-4.875 0-8.828125-3.953125-8.828125-8.828125v-105.929687c0-4.875 3.953125-8.828125 8.828125-8.828125zm0 0" fill="#91d4c5"/><path d="m150.070312 273.65625h-105.933593c-4.875 0-8.828125-3.953125-8.828125-8.828125s3.953125-8.828125 8.828125-8.828125h105.933593c4.875 0 8.828126 3.953125 8.828126 8.828125s-3.953126 8.828125-8.828126 8.828125zm0 0" fill="#5496ce"/><path d="m79.449219 406.070312c-4.875 0-8.828125-3.953124-8.828125-8.828124v-88.277344c0-4.875 3.953125-8.828125 8.828125-8.828125s8.828125 3.953125 8.828125 8.828125v88.277344c0 4.875-3.953125 8.828124-8.828125 8.828124zm0 0" fill="#586270"/><path d="m123.585938 361.929688h-88.277344c-4.875 0-8.824219-3.949219-8.824219-8.828126 0-4.875 3.949219-8.824218 8.824219-8.824218h88.277344c4.875 0 8.828124 3.949218 8.828124 8.824218 0 4.878907-3.953124 8.828126-8.828124 8.828126zm0 0" fill="#586270"/><path d="m191 360.859375 37.453125-37.453125c10.34375-10.34375 27.109375-10.34375 37.453125 0 10.339844 10.339844 10.339844 27.109375 0 37.453125l-37.453125 37.449219c-10.34375 10.34375-27.109375 10.34375-37.453125 0-10.339844-10.339844-10.339844-27.109375 0-37.449219zm0 0" fill="#d8625e"/><g fill="#a5b4b4"><path d="m114.757812 476.691406c-3.570312-.003906-6.785156-2.152344-8.152343-5.453125-1.367188-3.296875-.613281-7.09375 1.910156-9.617187l26.484375-26.484375c3.464844-3.34375 8.96875-3.296875 12.375.109375s3.453125 8.910156.109375 12.375l-26.484375 26.480468c-1.65625 1.65625-3.898438 2.585938-6.242188 2.589844zm0 0"/><path d="m167.722656 476.691406c-3.566406-.003906-6.785156-2.152344-8.152344-5.453125-1.367187-3.296875-.609374-7.09375 1.914063-9.617187l26.480469-26.484375c3.464844-3.34375 8.96875-3.296875 12.375.109375s3.453125 8.910156.109375 12.375l-26.484375 26.480468c-1.65625 1.65625-3.898438 2.585938-6.242188 2.589844zm0 0"/></g></svg>